Coordinates
version=1
nRows=10
nColumns=33
inDegrees=yes

Units are S.I. units (second, meters, Newtons, ...)
Angles are in degrees.

endheader
time	ground_thorax_rot_x	ground_thorax_rot_y	ground_thorax_rot_z	ground_thorax_tx	ground_thorax_ty	ground_thorax_tz	clav_prot_r	clav_elev_r	scapula_abduction_r	scapula_elevation_r	scapula_upward_rot_r	scapula_winging_r	shoulder_elv_r	plane_of_elev_r	axial_rot_r	elbow_flexion_r	pro_sup_r	wrist_flex_r	wrist_dev_r	clav_prot_l	clav_elev_l	scapula_abduction_l	scapula_elevation_l	scapula_upward_rot_l	scapula_winging_l	shoulder_elv_l	plane_of_elev_l	axial_rot_l	elbow_flexion_l	pro_sup_l	wrist_flex_l	wrist_dev_l
      3.47000000	     -2.02157571	      1.59346793	     10.54061243	     -0.11428474	      1.03029531	      0.00685472	     11.60756233	    -14.56018957	     23.73831795	     -9.70379804	      6.95177136	     -4.13441817	    -18.55390032	    -67.10362362	    115.01371789	    -72.58019557	   -167.48620819	     10.36660127	     -4.05817027	     16.24652550	     -7.92021113	    -23.05616084	    -11.97090140	    -30.92921344	      4.34920087	     59.44615781	    -14.85289821	      7.22187615	     51.35842257	     12.96197230	     17.67964860	    -10.56389835
      3.48000000	     -1.86350614	      1.49072472	     10.72278425	     -0.11495161	      1.02999571	      0.00688263	     11.36424879	    -14.07446962	     23.03433352	     -9.05928301	      6.37914548	     -4.13077753	    -19.31054853	    -67.96769529	    115.12524666	    -74.11131869	   -167.52110941	     10.94492135	     -4.37484653	     15.99357962	     -7.32584346	    -22.67289613	    -12.72588749	    -31.35180077	      4.15755928	     59.17387496	    -15.47970302	      7.25765310	     53.18011212	     12.66383534	     17.63431199	    -10.84917643
      3.49000000	     -1.90753729	      1.53352230	     10.73809936	     -0.11539876	      1.03071987	      0.00703575	     10.95463321	    -14.48123825	     21.79524033	     -9.05524883	      5.34954020	     -3.41628818	    -20.47524459	    -69.03025549	    114.30563091	    -75.59772693	   -167.64120593	     12.90388792	     -6.49791519	     15.64018457	     -7.19444406	    -22.07198744	    -12.89931977	    -31.42779446	      3.85482903	     59.55235393	    -17.00193061	      6.45476593	     55.11070232	     11.86734369	     17.39290155	    -11.01855626
      3.50000000	     -1.72382982	      1.44659786	     10.71748578	     -0.11594781	      1.03037069	      0.00715184	     10.73219204	    -13.90014337	     21.15871331	     -8.33472139	      4.82818363	     -3.48116224	    -21.07720641	    -69.69791118	    114.37311618	    -77.06986532	   -167.61166652	     13.37960828	     -6.69722702	     15.41276124	     -6.61655943	    -21.72525281	    -13.62335241	    -31.81099012	      3.67564613	     59.29860192	    -17.55269751	      6.62476243	     56.83132286	     11.60611896	     17.32836279	    -11.32017000
      3.51000000	     -1.55557634	      1.36751850	     10.89114349	     -0.11663740	      1.03006887	      0.00725810	     10.53554303	    -13.36808048	     20.47871978	     -7.59310855	      4.14438899	     -3.49291365	    -21.74905970	    -70.48421817	    114.40592128	    -78.39731123	   -167.53210903	     13.95266780	     -7.03132685	     15.19144486	     -6.08691909	    -21.39078196	    -14.33387819	    -32.25398473	      3.47768717	     59.07207517	    -18.29159184	      6.60060359	     58.52675045	     11.34047183	     17.26833439	    -11.64877324
      3.52000000	     -1.64797997	      1.47960240	     11.05668101	     -0.11707303	      1.03141042	      0.00737069	     10.02961382	    -14.10945969	     18.96094356	     -7.77732181	      2.84036565	     -2.50088042	    -23.28279787	    -71.79677292	    113.06781369	    -79.30349885	   -166.99275894	     17.19712411	    -10.35675802	     14.77452944	     -6.16329879	    -20.66244116	    -14.27459184	    -32.23708989	      3.11147682	     59.59769809	    -20.25165132	      5.43847161	     60.15472038	     10.26559049	     16.62785420	    -12.27490557
      3.53000000	     -1.44846829	      1.40205238	     11.03469765	     -0.11752997	      1.03112638	      0.00742511	      9.79036919	    -13.50039441	     18.32216287	     -7.03336415	      2.35954548	     -2.55790537	    -23.86649345	    -72.45958232	    113.09203163	    -80.35764595	   -166.92585218	     17.63427125	    -10.55942000	     14.53216405	     -5.57720238	    -20.28135628	    -15.01907258	    -32.62677848	      2.89404117	     59.26941990	    -20.81027647	      5.60943900	     61.73043974	     10.01876706	     16.54210317	    -12.58190793
      3.54000000	     -1.49082855	      1.50279667	     11.18477954	     -0.11767240	      1.03189820	      0.00752486	      9.18432912	    -13.70440970	     16.92503645	     -6.92895886	      1.58788277	     -1.89710102	    -25.79163362	    -73.66730252	    111.86364027	    -80.88313988	   -166.17504400	     20.98867528	    -13.45281722	     14.02633769	     -5.18750800	    -19.37730991	    -15.34046995	    -32.48408646	      2.48418477	     59.41011010	    -22.20899665	      4.52599927	     62.89930485	      9.04601810	     15.63846653	    -13.51396120
      3.55000000	     -1.37511892	      1.37112714	     11.26453736	     -0.11827499	      1.03166847	      0.00766421	      9.00572094	    -13.13899630	     16.36958883	     -6.20316697	      1.06853227	     -1.95467669	    -26.53632056	    -74.38601174	    111.92603865	    -81.70449490	   -166.02947548	     21.48872059	    -13.66617813	     13.81307163	     -4.60884640	    -19.03897809	    -16.08809332	    -32.89125439	      2.26605199	     59.15942859	    -22.98452950	      4.62357407	     64.31278917	      8.81923447	     15.51509449	    -13.85272480
      3.56000000	     -1.26133276	      1.41588952	     11.25839233	     -0.11830660	      1.03249677	      0.00781223	      8.55944311	    -13.19306275	     15.31726361	     -6.00974975	      0.44193168	     -1.50815814	    -28.45684153	    -75.34266694	    110.34430617	    -81.84133053	   -164.76883628	     25.01546058	    -16.28756343	     13.27002762	     -4.39311055	    -18.06858114	    -16.28039733	    -32.80937420	      1.81689593	     59.32594966	    -24.38385562	      3.66477485	     65.41854085	      8.15861835	     14.45180641	    -15.18408267
